<svg width="20" height="20" viewBox="0 0 20 20" fill="none" xmlns="http://www.w3.org/2000/svg">
<g clip-path="url(#clip0)">
<path d="M15.2637 4.73633H4.73633V15.2637H15.2637V4.73633Z" fill="white"/>
<path d="M15.2637 20L20 15.2637H15.2637V20Z" fill="#F72A25"/>
<path d="M20 4.73633H15.2637V15.2637H20V4.73633Z" fill="#FBBC04"/>
<path d="M15.2637 15.2637H4.73633V20H15.2637V15.2637Z" fill="#34A853"/>
<path d="M0 15.2637V18.4212C0 19.2936 0.70638 20 1.57878 20H4.73633V15.2637H0Z" fill="#188038"/>
<path d="M20 4.73633V1.57878C20 0.70638 19.2936 0 18.4212 0H15.2637V4.73633H20Z" fill="#1967D2"/>
<path d="M15.2637 0H1.57878C0.70638 0 0 0.70638 0 1.57878V15.2637H4.73633V4.73633H15.262V0H15.2637Z" fill="#4285F4"/>
<path d="M6.89583 12.902C6.50195 12.6367 6.23014 12.2477 6.08203 11.735L6.99512 11.359C7.07812 11.6748 7.22298 11.9189 7.42969 12.0931C7.63477 12.2673 7.88542 12.3519 8.17676 12.3519C8.47624 12.3519 8.73177 12.2607 8.94661 12.0801C9.16146 11.8978 9.26888 11.6667 9.26888 11.3867C9.26888 11.1003 9.15495 10.8659 8.92871 10.6836C8.70247 10.5013 8.41764 10.4118 8.0791 10.4118H7.55176V9.50846H8.02539C8.31673 9.50846 8.56413 9.43034 8.76432 9.27083C8.96452 9.11296 9.0638 8.89648 9.0638 8.62142C9.0638 8.37728 8.97428 8.18197 8.79525 8.03548C8.61621 7.889 8.38997 7.81576 8.11491 7.81576C7.84635 7.81576 7.63314 7.88737 7.47526 8.0306C7.31738 8.17383 7.19857 8.35612 7.13021 8.55794L6.22689 8.18197C6.34733 7.8418 6.56706 7.54232 6.88932 7.28353C7.21159 7.02474 7.62337 6.89453 8.12305 6.89453C8.49251 6.89453 8.82617 6.96615 9.12077 7.10937C9.41536 7.2526 9.64648 7.45117 9.81413 7.70345C9.98177 7.95736 10.0648 8.24219 10.0648 8.55794C10.0648 8.88021 9.98665 9.15202 9.83203 9.37663C9.67741 9.59961 9.48535 9.77214 9.25911 9.89095V9.94466C9.55045 10.0651 9.80599 10.2637 9.99316 10.5176C10.1836 10.7747 10.2796 11.0807 10.2796 11.4388C10.2796 11.7969 10.1885 12.1159 10.0078 12.3958C9.82552 12.6758 9.57487 12.8971 9.25586 13.0583C8.93685 13.2194 8.57715 13.3008 8.17838 13.3008C7.71615 13.3008 7.28971 13.1689 6.89583 12.902ZM12.5046 8.37077L11.5019 9.09505L11.0006 8.33496L12.7991 7.03776H13.4893V13.1576H12.5046V8.37077Z" fill="#1A73E8"/>
</g>
<defs>
<clipPath id="clip0">
<rect width="20" height="20" fill="white"/>
</clipPath>
</defs>
</svg>
