<svg width="116" height="147" viewBox="0 0 116 147" fill="none" xmlns="http://www.w3.org/2000/svg">
<path fill-rule="evenodd" clip-rule="evenodd" d="M12.7283 6C10.5191 6 8.72827 7.79086 8.72827 10V33.814C8.72827 40.882 11.8438 47.5906 17.2439 52.1507L35.2878 67.3878C39.0725 70.5838 39.0725 76.4162 35.2878 79.6122L17.2439 94.8493C11.8438 99.4094 8.72827 106.118 8.72827 113.186L8.72827 137C8.72827 139.209 10.5191 141 12.7283 141H86.2719C88.481 141 90.2719 139.209 90.2719 137V113.186C90.2719 106.118 87.1564 99.4094 81.7562 94.8493L63.7124 79.6122C59.9276 76.4162 59.9276 70.5838 63.7124 67.3878L81.7562 52.1507C87.1564 47.5906 90.2719 40.882 90.2719 33.814V10C90.2719 7.79086 88.481 6 86.2719 6H12.7283Z" fill="#F0F5FF"/>
<rect x="0.5" width="98" height="12" rx="4" fill="#80ACFF"/>
<rect x="0.5" y="135" width="98" height="12" rx="4" fill="#80ACFF"/>
<path fill-rule="evenodd" clip-rule="evenodd" d="M18.5 38.1502C18.5 36.9627 19.4627 36 20.6502 36H78.3498C79.5373 36 80.5 36.9627 80.5 38.1502C80.5 41.9817 78.797 45.615 75.8521 48.0662L55.3821 65.1041C53.556 66.624 52.5 68.877 52.5 71.2529V102.258C52.5 105.538 54.5011 108.485 57.5491 109.694L74.3822 116.375C78.0753 117.84 80.5 121.411 80.5 125.384C80.5 126.277 79.7767 127 78.8844 127L20.1156 127C19.2233 127 18.5 126.277 18.5 125.384C18.5 121.411 20.9247 117.84 24.6178 116.375L41.4509 109.694C44.4989 108.485 46.5 105.538 46.5 102.258V71.2528C46.5 68.877 45.444 66.624 43.6179 65.1041L23.1479 48.0662C20.203 45.615 18.5 41.9817 18.5 38.1502Z" fill="#80ACFF"/>
<rect x="75.5" y="74" width="40" height="40" rx="20" fill="#0B5FFF"/>
<mask id="mask0" mask-type="alpha" maskUnits="userSpaceOnUse" x="83" y="82" width="25" height="24">
<path fill-rule="evenodd" clip-rule="evenodd" d="M103.984 85.5156C101.72 83.2469 98.7065 82 95.5 82C92.2935 82 89.2803 83.2469 87.0156 85.5156C84.7466 87.7797 83.5 90.7938 83.5 94C83.5 97.2062 84.7466 100.22 87.0156 102.484C89.2847 104.753 92.2935 106 95.5 106C98.7065 106 101.72 104.753 103.984 102.484C106.253 100.216 107.5 97.2062 107.5 94C107.5 90.7938 106.253 87.7797 103.984 85.5156ZM95.5 103C90.5356 103 86.5 98.964 86.5 94C86.5 89.036 90.5356 85 95.5 85C100.464 85 104.5 89.036 104.5 94C104.5 98.964 100.464 103 95.5 103ZM92.5 98.5C92.3081 98.5 92.1147 98.4249 91.9697 98.2797C91.6753 97.9891 91.6753 97.5109 91.9697 97.2203L94.2197 94.9703C94.0791 94.6749 94 94.3468 94 94C94 93.0204 94.6284 92.186 95.5 91.8765V87.25C95.5 86.8375 95.8369 86.5 96.25 86.5C96.6616 86.5 97 86.8375 97 87.25V91.8765C97.8716 92.186 98.5 93.0204 98.5 94C98.5 95.2422 97.4922 96.25 96.25 96.25C95.9028 96.25 95.5747 96.1703 95.2788 96.0297L93.0288 98.2797C92.8838 98.4249 92.6919 98.5 92.5 98.5Z" fill="#6B6C7E"/>
</mask>
<g mask="url(#mask0)">
<rect x="83.5" y="82" width="24" height="24" fill="white"/>
</g>
</svg>
